<mxfile host="app.diagrams.net" modified="2023-11-17T05:51:35.117Z" agent="Mozilla/5.0 (Macintosh; Intel Mac OS X 10_15_7) AppleWebKit/537.36 (KHTML, like Gecko) Chrome/119.0.0.0 Safari/537.36" version="22.1.2" etag="xI70Sdg4GEkOOKH_wZxP" type="github">
  <diagram name="第 1 页" id="SgkeSsrR1reCaLiuCEDt">
    <mxGraphModel>
      <root>
        <mxCell id="0" />
        <mxCell id="1" parent="0" />
      </root>
    </mxGraphModel>
  </diagram>
</mxfile>
